<svg id="Layer_1" data-name="Layer 1" xmlns="http://www.w3.org/2000/svg" viewBox="0 0 512 512"><defs><style>.cls-1{fill:#f8dee6;}.cls-2,.cls-3{fill:none;stroke:#fa0c31;stroke-miterlimit:10;stroke-width:50px;}.cls-3{stroke-linecap:round;}.cls-4{fill:#fa0c31;}</style></defs><title>dish</title><circle class="cls-1" cx="292" cy="292" r="195"/><path class="cls-2" d="M256,25h0c127.58,0,231,103.42,231,231h0c0,127.58-103.42,231-231,231h0C128.42,487,25,383.58,25,256h0C25,128.42,128.42,25,256,25Z"/><path class="cls-3" d="M372,256.5h0A115.5,115.5,0,0,1,256.5,372h0A115.5,115.5,0,0,1,141,256.5h0A115.5,115.5,0,0,1,256.5,141h0a115.15,115.15,0,0,1,41.6,7.72"/><path class="cls-4" d="M352.7,217.09c14.12,0,27.65-12.42,27-27s-11.87-27-27-27c-14.13,0-27.66,12.42-27,27s11.86,27,27,27Z"/></svg>