<svg id="Layer_1" data-name="Layer 1" xmlns="http://www.w3.org/2000/svg" viewBox="0 0 512 512"><defs><style>.cls-1{fill:#f8dee6;}.cls-2,.cls-3{fill:none;stroke:#fa0c31;stroke-miterlimit:10;stroke-width:50px;}.cls-3{stroke-linecap:round;}.cls-4{fill:#fa0c31;}</style></defs><title>info</title><circle class="cls-1" cx="292" cy="292" r="195"/><path class="cls-2" d="M256.14,25.06h0c127.58,0,231,103.42,231,231h0c0,127.58-103.42,231-231,231h0c-127.58,0-231-103.42-231-231h0C25.14,128.48,128.56,25.06,256.14,25.06Z" transform="translate(-0.14 -0.06)"/><line class="cls-3" x1="255.86" y1="245.94" x2="255.86" y2="334.94"/><path class="cls-4" d="M256,203.2a19.15,19.15,0,0,0,9.82-2.19,23,23,0,0,0,13.48-13.48,19.22,19.22,0,0,0,2.2-9.83l-.91-6.78A25.45,25.45,0,0,0,274,159.67c-5-4.58-11.12-7.47-18-7.47a19.16,19.16,0,0,0-9.82,2.2,22.89,22.89,0,0,0-13.48,13.48,19.18,19.18,0,0,0-2.2,9.82l.91,6.78A25.45,25.45,0,0,0,238,195.73c5,4.58,11.12,7.47,18,7.47Z" transform="translate(-0.14 -0.06)"/></svg>